<?xml version="1.0" encoding="utf-8"?>
<!-- Generator: Adobe Illustrator 27.0.0, SVG Export Plug-In . SVG Version: 6.00 Build 0)  -->
<svg version="1.1" id="Warstwa_1" xmlns="http://www.w3.org/2000/svg" xmlns:xlink="http://www.w3.org/1999/xlink" x="0px" y="0px"
	 viewBox="0 0 96 96" style="enable-background:new 0 0 96 96;" xml:space="preserve">
<style type="text/css">
	.st0{fill:#FF5722;}
	.st1{fill:#1C0802;}
</style>
<path class="st0" d="M3,13C3,7.5,7.5,3,13,3h70c5.5,0,10,4.5,10,10v70c0,5.5-4.5,10-10,10H13C7.5,93,3,88.5,3,83V13z"/>
<path class="st1" d="M10.5,10.5v75h75v-75H10.5z M47.2,65.5l-1.9-7.3h-9.8l-1.9,7.3H26L37.1,30h6.6l11.2,35.5H47.2z M65.1,65.5h-6.9
	V39.1h6.9V65.5z M64.4,34.9c-0.7,0.7-1.6,1-2.7,1c-1.2,0-2.1-0.3-2.7-1c-0.7-0.7-1-1.6-1-2.6c0-1.1,0.3-2,1-2.6c0.7-0.7,1.6-1,2.7-1
	c1.1,0,2,0.3,2.7,1c0.7,0.7,1,1.6,1,2.6C65.4,33.3,65.1,34.2,64.4,34.9z"/>
<path class="st1" d="M37.1,52.2h6.6l-3.3-12.7L37.1,52.2z"/>
</svg>
