<?xml version="1.0" encoding="utf-8"?>
<!-- Generator: Adobe Illustrator 27.0.0, SVG Export Plug-In . SVG Version: 6.00 Build 0)  -->
<svg version="1.1" id="Warstwa_1" xmlns="http://www.w3.org/2000/svg" xmlns:xlink="http://www.w3.org/1999/xlink" x="0px" y="0px"
	 viewBox="0 0 96 96" style="enable-background:new 0 0 96 96;" xml:space="preserve">
<style type="text/css">
	.st0{fill:#FFFFFF;}
	.st1{fill:#4000BF;}
	.st2{fill:url(#SVGID_1_);}
</style>
<g>
	<path class="st0" d="M48,93.6c25.1,0,45.6-20.3,45.6-45.6S73.1,2.4,48,2.4S2.4,22.9,2.4,48S22.9,93.6,48,93.6z"/>
	<path class="st1" d="M48,0C21.6,0,0,21.6,0,48s21.6,48,48,48s48-21.6,48-48S74.4,0,48,0z M48,5c23.8,0,43,19.4,43,43
		c0,23.8-19.4,43-43,43C24.2,91,5,71.7,5,48C5,24.2,24.2,5,48,5z"/>
	
		<linearGradient id="SVGID_1_" gradientUnits="userSpaceOnUse" x1="-1773.766" y1="558.3291" x2="-1773.766" y2="558.7042" gradientTransform="matrix(182.2377 0 0 -182.237 323295.6875 101830.4609)">
		<stop  offset="0" style="stop-color:#7400E1"/>
		<stop  offset="1" style="stop-color:#4000BF"/>
	</linearGradient>
	<path class="st2" d="M48.6,13.8C67.5,13.8,82.9,29,82.9,48S67.7,82.2,48.6,82.2S14.4,66.9,14.4,48c0-4.6,0.8-9,2.6-13.1
		c2.4,3.4,6.2,5.4,10.7,5.4C34.9,40.3,41,34.4,41,27c0-4.3-2.2-8.3-5.4-10.7C39.5,14.7,44,13.8,48.6,13.8z"/>
</g>
</svg>
