<?xml version="1.0" encoding="utf-8"?>
<!-- Generator: Adobe Illustrator 27.0.0, SVG Export Plug-In . SVG Version: 6.00 Build 0)  -->
<svg version="1.1" id="Warstwa_1" xmlns="http://www.w3.org/2000/svg" xmlns:xlink="http://www.w3.org/1999/xlink" x="0px" y="0px"
	 viewBox="0 0 96 96" style="enable-background:new 0 0 96 96;" xml:space="preserve">
<style type="text/css">
	.st0{fill:#99425B;}
	.st1{fill:#FFFFFF;}
</style>
<path class="st0" d="M86.2,46.4c0-4.5-4-8-8.5-8c-0.1,0-0.9,0-1,0L88.8,5H37.2l12.3,33.4c-0.1,0-0.4,0-0.6,0c-4.8,0-8.5,3.7-8.5,8
	c0,3.7,2.7,6.8,6.2,7.9c-1.8,2.9-4.4,5.9-6.7,8c-3.5,3.3-7.7,5.7-12.3,7.2c-5.4-2.8-7.9-8.3-5.7-13.3c0.1-0.8,0.6-0.9,0.9-1.7
	c4-0.9,6.7-4.3,6.7-8c0-4.5-4-8-8.5-8s-8.9,3.5-8.9,7.9c0,2.8,1.4,5.3,3.7,6.8c-2.1,4.5-5.4,9.6-6.5,15.1c-1,6.8,0,13.9,6.2,18
	c14.5,9.6,30.3-5.9,46.9-9.7c6.1-1.3,12.5-0.9,17.7-4.1c4-2.1,6.7-5.9,7.2-9.7c0.6-3.9-0.4-8-3-11.2C85.4,50.3,86.2,48.4,86.2,46.4"
	/>
<path class="st1" d="M84.6,62.4c-0.9,3.5-3,6.4-6.5,8.3c-3,1.7-6.7,2.4-10.8,2.8c-2.1,0.1-4.4,0.8-6.5,0.9
	c-5.7,1.2-11.1,3.9-16.4,6.3c-10.3,4.9-19.8,9.5-28.5,3.7c-6.5-4.3-6.1-11.7-5.4-16c0.9-3.9,2.7-7.5,4.4-10.9c0.1-0.8,0.9-0.9,1-1.7
	c1,0.4,1.8,0.5,3,0.8c-1.8,5.7,1,11.7,7.1,14.9l0.9,0.4l0.9-0.1c4.8-1.6,9.2-4.3,12.9-7.6c2.7-2.4,4.5-4.5,6.5-7.2
	c0.4,0.4,0.9,0.4,1.4,0.4c5.4,0,10.2-3.9,10.8-9.1c2.3-0.1,4.5-0.1,6.8,0c0.9,5.1,5.2,9.1,10.8,9.1c2.3,0,4.5-0.8,6.2-2
	C84.6,57.2,85.4,59.9,84.6,62.4L84.6,62.4z M20.2,40.3c3.5,0,6.5,2.8,6.5,6.1c0,1.2-0.4,2.5-1,3.3c-1,1.6-3,2.8-5,2.8
	c-0.1,0-0.1,0-0.4,0c-0.9,0-1.7-0.1-2.3-0.4c-1.4-0.5-2.7-1.6-3.5-2.8c-0.9-0.9-1.3-2-1.3-2.9C13.5,43.1,16.3,40.3,20.2,40.3
	L20.2,40.3z M42.3,46.4c0-3.2,2.6-5.7,5.7-6.1c0.1,0,0.9-0.1,1-0.1c2.1,0,4,0.9,5.2,2.5c0.1,0.4,0.6,0.8,0.9,0.9
	c0.4,0.9,0.9,1.7,0.9,2.8c0,0.5,0,0.9-0.1,1.3c-0.9,2.5-3,4.5-5.8,4.7c-0.1,0-0.4,0-0.9,0c-1.3,0-2.7-0.4-3.5-0.9
	C43.3,50.5,42.3,48.7,42.3,46.4L42.3,46.4z M69.9,39.1c-1.4,1.2-2.7,2.8-3,4.7c-2.7-0.1-4.8-0.1-7.5,0c-0.6-2-1.7-3.7-3.4-5.1
	l6.7-13.1L69.9,39.1z M40.3,6.9h45.2L74.9,36.4c-0.4,0.1-1,0.1-1.3,0.4L63.2,16.4L52.9,36.6c-0.4-0.1-1-0.1-1.4-0.4L40.3,6.9z
	 M83.8,46.4c0,0.8-0.1,1.2-0.1,1.7c-0.4,1.3-1.3,2.5-2.7,3.3c-1,0.8-2.6,0.9-3.7,0.9c-3,0-5.7-2-6.5-4.5c-0.1-0.5-0.1-0.9-0.1-1.6
	c0-0.8,0.1-1.6,0.6-2.5c0.1-0.4,0.4-0.8,0.9-0.9c1-1.6,3.1-2.8,5.4-2.8c0.1,0,0.4,0,0.9,0C81.5,40.7,83.8,43.2,83.8,46.4L83.8,46.4z
	 M88.2,46.4c0-5.1-4-9.2-8.8-10L91.4,3h-57l12,33.7c-4.8,0.9-8.5,5.1-8.5,9.7c0,3.7,2.1,6.8,5,8.7c-1.4,2.1-3.1,4.1-5.2,5.9
	c-3.1,2.8-6.7,5.1-10.3,6.3c-4-2.4-5.4-6.4-3.7-10.4l0.1-0.1l0.1-0.5c4.4-1.3,7.2-5.1,7.2-9.7c0-5.7-4.8-10.1-10.8-10.1
	s-11.1,4.3-11.1,10c0,2.8,1,5.5,3.1,7.2c-0.4,0.8-0.9,1.6-1,2.4c-1.8,3.5-4,7.6-4.5,12c-1.7,8.8,0.9,16,7.1,20
	c3.7,2.5,7.5,3.3,11.5,3.3c7.2,0,14.3-3.3,21.4-6.7c5-2.5,10.3-4.9,15.9-6.1c1.8-0.5,4-0.8,6.1-0.9c4.1-0.8,8.5-0.9,12.3-3.3
	c4.5-2.5,7.5-6.4,8.4-11.3c0.9-4.1-0.1-8-2.3-11.3C87.6,50.1,88.2,48.4,88.2,46.4L88.2,46.4z"/>
</svg>
