<?xml version="1.0" encoding="utf-8"?>
<!-- Generator: Adobe Illustrator 27.0.0, SVG Export Plug-In . SVG Version: 6.00 Build 0)  -->
<svg version="1.1" id="Warstwa_1" xmlns="http://www.w3.org/2000/svg" xmlns:xlink="http://www.w3.org/1999/xlink" x="0px" y="0px"
	 viewBox="0 0 96 96" style="enable-background:new 0 0 96 96;" xml:space="preserve">
<style type="text/css">
	.st0{fill:#03A9F4;}
	.st1{fill:#020F16;}
</style>
<path class="st0" d="M3,13C3,7.5,7.5,3,13,3h70c5.5,0,10,4.5,10,10v70c0,5.5-4.5,10-10,10H13C7.5,93,3,88.5,3,83V13z"/>
<path class="st1" d="M38,35.9h-5V47H38c1.4,0,2.4-0.4,3.2-1.3c0.8-0.9,1.1-2.2,1.1-3.9c0-1.8-0.4-3.2-1.1-4.2
	C40.4,36.5,39.3,36,38,35.9z"/>
<path class="st1" d="M10.5,10.5v75h75v-75H10.5z M46.4,50c-2.1,2-4.9,3-8.6,3H33v12.5h-7.2V30H38c3.5,0,6.3,1.1,8.4,3.3
	c2.1,2.2,3.1,5,3.1,8.5S48.5,48,46.4,50z M69.7,63.8c-1.8,1.4-4.1,2.1-7,2.1c-1.9,0-3.6-0.4-5.1-1.1c-1.5-0.8-2.6-1.8-3.5-3.2
	c-0.8-1.3-1.3-2.8-1.3-4.4h6.6c0,1.2,0.3,2.1,0.8,2.7c0.5,0.6,1.4,0.9,2.6,0.9c1.9,0,2.8-0.8,2.8-2.5c0-0.6-0.3-1.1-0.8-1.6
	c-0.6-0.5-1.8-1.2-3.7-2c-2.8-1.2-4.8-2.4-5.9-3.6c-1.1-1.2-1.6-2.8-1.6-4.6c0-2.3,0.8-4.2,2.5-5.7s3.9-2.3,6.6-2.3
	c2.9,0,5.2,0.7,7,2.2c1.7,1.5,2.6,3.5,2.6,6h-6.9c0-2.1-0.9-3.2-2.7-3.2c-0.7,0-1.3,0.2-1.8,0.7c-0.5,0.5-0.7,1.1-0.7,1.9
	c0,0.6,0.3,1.1,0.8,1.6s1.7,1.1,3.7,1.9c2.8,1,4.8,2.2,6,3.5c1.2,1.3,1.7,2.9,1.7,5C72.4,60.5,71.5,62.4,69.7,63.8z"/>
</svg>
