<?xml version="1.0" encoding="utf-8"?>
<!-- Generator: Adobe Illustrator 27.0.0, SVG Export Plug-In . SVG Version: 6.00 Build 0)  -->
<svg version="1.1" id="Warstwa_1" xmlns="http://www.w3.org/2000/svg" xmlns:xlink="http://www.w3.org/1999/xlink" x="0px" y="0px"
	 viewBox="0 0 256 192" style="enable-background:new 0 0 256 192;" xml:space="preserve">
<style type="text/css">
	.st0{fill:#2D4552;}
	.st1{fill:#E2574C;}
	.st2{fill:#2EAD33;}
	.st3{fill:#D65348;}
	.st4{fill:#1D8D22;}
	.st5{fill:#C04B41;}
</style>
<g>
	<path class="st0" d="M93.6,105.5c-7.6,2-12.4,5.6-15.7,9.3c3.1-2.6,7.3-5,12.9-6.5c5.8-1.6,10.7-1.6,14.7-0.8v-3.1
		C102.1,104,98.1,104.3,93.6,105.5z M77.4,79.7l-27.9,7.2c0,0,0.5,0.6,1.5,1.6l23.7-5.9c0,0-0.3,4.2-3.2,7.9
		C76.9,86.4,77.4,79.7,77.4,79.7z M100.8,143.2c-39.4,10.3-60.2-33.8-66.5-56.7c-2.9-10.6-4.2-18.5-4.5-23.7c0-0.5,0-0.9,0-1.4
		c-2.1,0.2-3.1,1.1-2.7,4c0.3,5.1,1.6,13.1,4.5,23.7c6.3,22.9,27.1,66.8,66.5,56.7c8.6-2.2,15-6.2,19.9-11.5
		C113.4,138.2,107.9,141.4,100.8,143.2z M108.3,52.7v2.6h15.5c-0.3-0.9-0.6-1.9-1-2.6H108.3z"/>
	<path class="st0" d="M127.1,75c6.9,1.9,10.7,6.5,12.6,10.7l7.7,2.2c0,0-1.1-14.5-14.7-18.2c-12.8-3.4-20.7,6.9-21.6,8.3
		C114.9,75.3,120.4,73.1,127.1,75z M188.8,85.9c-12.8-3.6-20.7,6.9-21.6,8.1c3.7-2.5,9.2-4.7,16-2.8c6.9,1.9,10.7,6.5,12.6,10.7
		l7.7,2.2C203.5,104.1,202.5,89.7,188.8,85.9z M181.2,124.2l-64.4-17.4c0,0,0.6,3.4,3.4,7.8l54.2,14.6
		C178.8,126.9,181.2,124.2,181.2,124.2z M136.5,161.6C85.5,148.4,91.6,85.8,99.9,56c3.4-12.3,6.9-21.3,9.8-27.4
		c-1.8-0.3-3.2,0.5-4.5,3.3c-3.1,6.1-6.9,15.9-10.8,29.6C86.1,91.2,80,153.8,131,167.1c24.1,6.2,42.8-3.3,56.7-18.1
		C174.3,160.5,157.5,167.1,136.5,161.6z"/>
	<path class="st1" d="M108.3,128.4v-12.6l-36.3,10c0,0,2.7-15.1,21.6-20.2c5.8-1.6,10.7-1.6,14.7-0.8v-52h18.2
		c-1.9-5.9-3.9-10.4-5.5-13.7c-2.7-5.3-5.3-1.7-11.6,3.3c-4.4,3.6-15.5,11.1-32.1,15.4c-16.6,4.4-30,3.1-35.7,2.2
		c-7.9-1.4-12.1-3-11.8,2.8c0.3,5.1,1.6,13.1,4.5,23.7c6.3,22.9,27.1,66.8,66.5,56.7c10.3-2.6,17.6-7.9,22.6-14.6H108.3L108.3,128.4
		z M49.5,86.8l27.9-7.2c0,0-0.8,10.4-11.3,13.1C55.6,95.4,49.5,86.8,49.5,86.8z"/>
	<path class="st2" d="M213.7,53.4c-7.3,1.2-24.7,2.8-46.3-2.8c-21.6-5.6-35.8-15.3-41.5-19.9c-8.1-6.5-11.6-11.1-15-4.2
		c-3.1,6.1-6.9,15.9-10.8,29.6c-8.2,29.7-14.4,92.4,36.6,105.6c51,13.2,78.1-44.1,86.4-73.8c3.9-13.7,5.5-24.1,6-30.8
		C229.3,49.5,224,51.6,213.7,53.4z M111.2,78c0,0,8.1-12,21.6-8.3c13.6,3.7,14.7,18.2,14.7,18.2L111.2,78z M144.4,132.2
		c-24.1-6.9-27.6-25.2-27.6-25.2l64.4,17.3C181.2,124.2,168.1,138.9,144.4,132.2z M167.2,94.2c0,0,8.1-12,21.6-8.3
		s14.7,18.2,14.7,18.2L167.2,94.2z"/>
	<path class="st3" d="M95.5,119.4l-23.6,6.4c0,0,2.6-14.2,20-19.8L78.6,57.4l-1.1,0.3c-16.6,4.4-30,3.1-35.7,2.2
		c-7.9-1.4-12.1-3-11.8,2.8c0.3,5.1,1.6,13.1,4.5,23.7c6.3,22.9,27.1,66.8,66.5,56.7l1.1-0.3L95.5,119.4z M49.5,86.8l27.9-7.2
		c0,0-0.8,10.4-11.3,13.1C55.6,95.4,49.5,86.8,49.5,86.8z"/>
	<path class="st4" d="M145.5,132.3l-1.1-0.3c-24.1-6.9-27.6-25.2-27.6-25.2l33.3,9l17.6-65.3h-0.2C145.9,45,131.7,35.3,126,30.6
		c-8.1-6.5-11.6-11.1-15-4.2c-3.1,6.1-6.9,15.9-10.8,29.6c-8.2,29.7-14.4,92.4,36.6,105.6l1,0.2L145.5,132.3z M111.2,78
		c0,0,8.1-12,21.6-8.3c13.6,3.7,14.7,18.2,14.7,18.2L111.2,78z"/>
	<path class="st5" d="M96.8,118.9l-6.3,1.7c1.5,8.1,4.2,16,8.2,22.9c0.6-0.2,1.5-0.3,2.1-0.5c1.9-0.5,3.7-1.1,5.5-1.9
		C101.6,134.7,98.6,127,96.8,118.9z M94.4,61.5c-3.2,11.8-6.1,28.7-5.3,45.6c1.5-0.6,2.9-1.1,4.7-1.6l1.1-0.3
		C93.4,87.2,96.5,68.6,100,56c0.8-3.1,1.8-6.1,2.6-8.9c-1.5,0.9-2.9,1.7-4.7,2.6C96.6,53.4,95.5,57.3,94.4,61.5z"/>
</g>
</svg>
