<?xml version="1.0" encoding="utf-8"?>
<!-- Generator: Adobe Illustrator 27.0.0, SVG Export Plug-In . SVG Version: 6.00 Build 0)  -->
<svg version="1.1" id="Warstwa_1" xmlns="http://www.w3.org/2000/svg" xmlns:xlink="http://www.w3.org/1999/xlink" x="0px" y="0px"
	 viewBox="0 0 90 90" style="enable-background:new 0 0 90 90;" xml:space="preserve">
<style type="text/css">
	.st0{fill:url(#SVGID_1_);}
	.st1{fill:url(#SVGID_00000179615479736137099400000013723674699010770053_);}
</style>
<linearGradient id="SVGID_1_" gradientUnits="userSpaceOnUse" x1="-1822.2543" y1="584.4877" x2="-1822.2352" y2="584.4646" gradientTransform="matrix(2454.3228 0 0 -2187.2434 4472423.5 1278422.125)">
	<stop  offset="0" style="stop-color:#41D1FF"/>
	<stop  offset="1" style="stop-color:#BD34FE"/>
</linearGradient>
<path class="st0" d="M84.8,16.7L47.1,84c-0.8,1.5-2.7,1.5-3.6,0L5.2,16.7c-0.8-1.5,0.5-3.3,2.1-3.1L45,20.5c0.3,0,0.5,0,0.8,0
	l36.8-6.7C84.2,13.4,85.6,15.2,84.8,16.7z"/>
<linearGradient id="SVGID_00000142134752283943481050000014358265004198218883_" gradientUnits="userSpaceOnUse" x1="-1822.1027" y1="584.3217" x2="-1822.1005" y2="584.2933" gradientTransform="matrix(1125.4194 0 0 -2051.6592 2050679.5 1198835.125)">
	<stop  offset="0" style="stop-color:#FFEA83"/>
	<stop  offset="8.299999e-02" style="stop-color:#FFDD35"/>
	<stop  offset="1" style="stop-color:#FFA800"/>
</linearGradient>
<path style="fill:url(#SVGID_00000142134752283943481050000014358265004198218883_);" d="M63,5l-27.9,5.5c-0.5,0.1-0.8,0.5-0.8,0.9
	l-1.7,29c0,0.5,0.4,1.1,0.9,1.1c0.1,0,0.1,0,0.3,0l7.7-1.7c0.8-0.1,1.5,0.5,1.2,1.2l-2.3,11.3c-0.1,0.8,0.5,1.5,1.3,1.2l4.8-1.5
	c0.8-0.1,1.5,0.5,1.3,1.2l-3.7,17.7c-0.1,1.1,1.2,1.7,1.9,0.8l0.4-0.7l22.7-45.4c0.4-0.8-0.3-1.6-1.1-1.5l-8,1.5
	c-0.8,0.1-1.5-0.5-1.1-1.3l5.2-18.1C64.3,5.5,63.8,4.7,63,5L63,5z"/>
</svg>
