<?xml version="1.0" encoding="utf-8"?>
<!-- Generator: Adobe Illustrator 27.0.0, SVG Export Plug-In . SVG Version: 6.00 Build 0)  -->
<svg version="1.1" id="Warstwa_1" xmlns="http://www.w3.org/2000/svg" xmlns:xlink="http://www.w3.org/1999/xlink" x="0px" y="0px"
	 viewBox="0 0 96 96" style="enable-background:new 0 0 96 96;" xml:space="preserve">
<style type="text/css">
	.st0{fill:#FF41C8;}
	.st1{fill:#16020B;}
</style>
<path class="st0" d="M3,13C3,7.5,7.5,3,13,3h70c5.5,0,10,4.5,10,10v70c0,5.5-4.5,10-10,10H13C7.5,93,3,88.5,3,83V13z"/>
<path class="st1" d="M10.5,10.5v75h75v-75H10.5z M35.7,42.2L40.5,30h8.2l-8.4,17.6l8.5,17.9h-8.3l-4.9-12.4l-4.9,12.4h-8.3l8.5-17.9
	L22.7,30h8.2L35.7,42.2z M50.7,51.6c0-4.3,0.7-7.6,2.2-9.7c1.5-2.1,3.6-3.2,6.4-3.2c2,0,3.7,0.9,5.1,2.6V28.1h7v37.5H65l-0.3-2.7
	c-1.4,2.1-3.2,3.2-5.5,3.2c-2.8,0-4.9-1.1-6.3-3.2s-2.2-5.2-2.2-9.3L50.7,51.6L50.7,51.6z M57.6,53.3c0,2.6,0.3,4.4,0.8,5.5
	c0.6,1,1.5,1.5,2.8,1.5c1.4,0,2.4-0.6,3.1-1.8V46.4c-0.7-1.3-1.7-2-3.1-2c-1.3,0-2.2,0.5-2.8,1.5c-0.6,1-0.9,2.8-0.9,5.5V53.3z"/>
</svg>
